inDegrees=yes
name=ik_S55_A06_T03
DataType=double
version=3
OpenSimVersion=4.3-2021-08-27-4bc7ad9
endheader
time	pelvis_tilt	pelvis_list	pelvis_rotation	pelvis_tx	pelvis_ty	pelvis_tz	hip_flexion_r	hip_adduction_r	hip_rotation_r	knee_angle_r	knee_angle_r_beta	ankle_angle_r	subtalar_angle_r	mtp_angle_r	hip_flexion_l	hip_adduction_l	hip_rotation_l	knee_angle_l	knee_angle_l_beta	ankle_angle_l	subtalar_angle_l	mtp_angle_l	lumbar_extension	lumbar_bending	lumbar_rotation	arm_flex_r	arm_add_r	arm_rot_r	elbow_flex_r	pro_sup_r	wrist_flex_r	wrist_dev_r	arm_flex_l	arm_add_l	arm_rot_l	elbow_flex_l	pro_sup_l	wrist_flex_l	wrist_dev_l
0	0	0	0	0	0.9399999999999999	0	0	0	0	0	0	0	0	0	0	0	0	0	0	0	0	0	0	0	0	0	0	0	0	89.99999999963507	0	0	0	0	0	0	89.99999999869995	0	0
0.02	-5.296364398899004	-0.1048010857958446	22.35120287056687	0	0.9399999999999999	0	4.882470411223937	-2.252087604143371	-1.638932195300079	7.377740917627806	0.128765870371713	0	0	0	4.882470411223937	-2.252087604143371	-1.638932195300079	7.377740917627806	0.128765870371713	0	0	0	-3.523923554569606	-2.529627675159832	0.2616843316969674	18.17970577183119	-17.93142229604446	-7.655811991425998	58.16354737185406	117.8302025044874	0	0	16.4547782551389	-19.16980937013191	-9.314306488419124	63.66429394129342	135.0754469506649	0	0
0.04	-5.838432797890005	-1.133079680016247	22.59842805841361	0	0.9399999999999999	0	41.60633143173244	-11.45752513946718	-10.56457921863629	52.68915422009356	0.9195992212316976	0	0	0	41.60633143173244	-11.45752513946718	-10.56457921863629	52.68915422009356	0.9195992212316976	0	0	0	-2.629973751864244	-1.765793207402153	0.05527348584021113	18.14071655944866	-17.93950779624901	-7.656765764191865	58.20034714747287	117.8426015496245	0	0	16.44705880416125	-19.16850779211679	-9.292284837751321	63.66865440953226	135.0567948258752	0	0
0.06	-5.842763835545267	-1.137384012077785	22.58876827284983	0	0.9399999999999999	0	41.61083244787364	-11.45035443009207	-10.56285237479457	52.69118651279862	0.9196346914307651	0	0	0	41.61083244787364	-11.45035443009207	-10.56285237479457	52.69118651279862	0.9196346914307651	0	0	0	-2.638636694660828	-1.765216248542641	0.05325052690164388	18.14987587594291	-17.93867686052237	-7.656469640176442	58.21295903374931	117.799501344111	0	0	16.45563445711807	-19.18514632714276	-9.302710321073569	63.67414892916078	135.0442229559651	0	0
0.08	-5.846631157062816	-1.137462464326173	22.58591756174084	0	0.9399999999999999	0	41.61600338765329	-11.44342692230631	-10.56104788800147	52.69358866022054	0.919676616812396	0	0	0	41.61600338765329	-11.44342692230631	-10.56104788800147	52.69358866022054	0.919676616812396	0	0	0	-2.645656929597236	-1.760772065964728	0.05755889929685246	18.16921914400741	-17.95098417335592	-7.682257869424843	58.23512608268902	117.7698334103727	0	0	16.44510008473875	-19.19851001643045	-9.313974907277462	63.68696767052631	135.0092503926745	0	0
0.1	-5.845524238962853	-1.144949354624512	22.58691823220865	0	0.9399999999999999	0	41.61779752933684	-11.44273218161891	-10.5606579492488	52.69451686821112	0.919692817097975	0	0	0	41.61779752933684	-11.44273218161891	-10.5606579492488	52.69451686821112	0.919692817097975	0	0	0	-2.648839950108798	-1.766924111821903	0.05808784130519683	18.1492729980634	-17.93590939771314	-7.687134335298978	58.22446114828981	117.7769535106855	0	0	16.46097463914786	-19.19451792215681	-9.308514714003383	63.68521152112424	135.0438692366838	0	0
0.12	-5.843791709093998	-1.143897201251997	22.59297115414324	0	0.9399999999999999	0	41.6186915681787	-11.44029189219129	-10.56018031085549	52.69487242972206	0.9196990228170342	0	0	0	41.6186915681787	-11.44029189219129	-10.56018031085549	52.69487242972206	0.9196990228170342	0	0	0	-2.647369821567032	-1.766118661768256	0.05728141428240118	18.14105801716338	-17.91512990308293	-7.672911609398712	58.21997099362495	117.7864539681907	0	0	16.46610200427587	-19.18645133879026	-9.299733441912082	63.68050614186352	135.0661997789681	0	0
0.14	-5.843321535600609	-1.138156653028273	22.60217953106486	0	0.9399999999999999	0	41.62135927708707	-11.43494309532804	-10.55900391594223	52.69601782079751	0.9197190136625237	0	0	0	41.62135927708707	-11.43494309532804	-10.55900391594223	52.69601782079751	0.9197190136625237	0	0	0	-2.646443085963775	-1.759372401892964	0.05503579377155714	18.14631040778448	-17.89587229786168	-7.629981143930959	58.2255115009173	117.7892321019701	0	0	16.4498135411983	-19.17240177050832	-9.264837092775625	63.68338053281806	135.0588677000863	0	0
0.16	-5.842458083950549	-1.138918645245352	22.59478796358247	0	0.9399999999999999	0	41.62881082755988	-11.43378304671009	-10.5576605602331	52.69998940669664	0.9197883309129893	0	0	0	41.62881082755988	-11.43378304671009	-10.5576605602331	52.69998940669664	0.9197883309129893	0	0	0	-2.651646487472223	-1.755228321876086	0.05798177877557598	18.13801695496759	-17.90775024963965	-7.648501120488278	58.23837340410154	117.7715503787481	0	0	16.45715498066436	-19.17886015804309	-9.288223526599218	63.68077120955429	135.0610727122688	0	0
0.18	-5.837345741411159	-1.138923162335013	22.60225146950467	0	0.9399999999999999	0	41.63272591028956	-11.42715543715251	-10.55610262366817	52.70173335914998	0.9198187686252984	0	0	0	41.63272591028956	-11.42715543715251	-10.55610262366817	52.70173335914998	0.9198187686252984	0	0	0	-2.649399232722854	-1.75499435584606	0.06016688372366827	18.13801018750702	-17.90965505661484	-7.670486705705285	58.25145269048603	117.7448429083663	0	0	16.45640680364948	-19.17892857328243	-9.298001270925546	63.68721802567801	135.0142312592816	0	0
0.2	-5.832748145181919	-1.14029306076784	22.60923643607934	0	0.9399999999999999	0	41.63537935345281	-11.42265874145554	-10.55505007080011	52.70291806544374	0.9198394456507936	0	0	0	41.63537935345281	-11.42265874145554	-10.55505007080011	52.70291806544374	0.9198394456507936	0	0	0	-2.647383440571733	-1.756489626641788	0.06080885161351737	18.12282868494158	-17.89972860557777	-7.668573735384062	58.2546201137689	117.7358143850586	0	0	16.45908464128396	-19.17620484204877	-9.314589777461133	63.6901446069359	135.0068325991203	0	0
0.22	-5.823695772777246	-1.136907104208963	22.61991780354461	0	0.9399999999999999	0	41.63728253927897	-11.41900096699876	-10.55423766414767	52.70374748090805	0.9198539216815127	0	0	0	41.63728253927897	-11.41900096699876	-10.55423766414767	52.70374748090805	0.9198539216815127	0	0	0	-2.638976765849207	-1.755585572410522	0.05760856754592471	18.10415553656951	-17.86858689829972	-7.61962027065191	58.25500618528154	117.7424390122265	0	0	16.46237021872758	-19.15370142564682	-9.310312446015635	63.67949888715905	135.0154568833692	0	0
0.24	-5.818872298099534	-1.132240897033429	22.62948172374776	0	0.9399999999999999	0	41.63579740475087	-11.4199329966374	-10.55461905842009	52.70301152326363	0.9198410767974625	0	0	0	41.63579740475087	-11.4199329966374	-10.55461905842009	52.70301152326363	0.9198410767974625	0	0	0	-2.6317047019673	-1.753990722994677	0.05474761889704759	18.10271464998549	-17.88278305844428	-7.636606351813536	58.22903770140813	117.7703321372999	0	5.1039327491625e-37	16.44657113599716	-19.15062222001242	-9.35438448652982	63.64998202905886	135.0598920971676	0	5.1039327491625e-37
0.26	-5.808502836156965	-1.129576266778767	22.62953486900558	0	0.9399999999999999	0	41.6367184154027	-11.41678108162134	-10.55402578836323	52.70332990542521	0.9198466336144615	0	0	0	41.6367184154027	-11.41678108162134	-10.55402578836323	52.70332990542521	0.9198466336144615	0	0	0	-2.621523326625214	-1.755192618841272	0.05637807582223502	18.11111560997339	-17.88194324511236	-7.641132560325419	58.22900217958981	117.7673932440584	0	0	16.43182225855274	-19.14554812258159	-9.338981019379707	63.64870933377201	135.0459904103965	0	0
0.28	-5.796356967842432	-1.123732068641689	22.62606429210495	0	0.9399999999999999	0	41.6358083642174	-11.41566452020429	-10.55401988069922	52.70278180735019	0.9198370674984286	0	0	0	41.6358083642174	-11.41566452020429	-10.55401988069922	52.70278180735019	0.9198370674984286	0	0	0	-2.607192637225544	-1.7554256930468	0.06101826326276093	18.09081465633993	-17.88141249557585	-7.680849392014959	58.20710202439218	117.7912590819836	0	0	16.43513023892152	-19.13168445030463	-9.335888478355281	63.63452147663877	135.0684758805614	0	0
